# xmcd CD database file
#
# Track frame offsets:
#	150
#	13119
#	26135
#	39959
#	54238
#	68224
#	83242
#	96544
#	109348
#	123040
#	134229
#	148042
#	160174
#	172509
#	185007
#	199781
#	211414
#	223314
#	234002
#	246544
#	262264
#	275989
#
# Disc length: 3869 seconds
#
# Revision: 0
# Processed by: cddbd v1.5.2PL0 Copyright (c) Steve Scherf et al.
# Submitted via: CDex 1.70beta2
#
DISCID=540f1b16
DTITLE=Milton Mezzrow - Jazz Roads CD142 - Swing - Milton 'Mezz' Mezzrow (1936-38)
DYEAR=2006
DGENRE=Jazz
TTITLE0=Mezz Mezzrow And His Orchestra - Free Love
TTITLE1=Mezz Mezzrow And His Orchestra - Dissonance
TTITLE2=Mezz Mezzrow And His Orchestra - Swinging With Mezz
TTITLE3=Mezz Mezzrow And His Orchestra - Love, You're Not The One For Me
TTITLE4=Mezz Mezzrow And His Orchestra - Old Fashioned Love
TTITLE5=Mezz Mezzrow And His Orchestra - Apologies
TTITLE6=Mezz Mezzrow And His Orchestra - Sendin' The Vipers
TTITLE7=Mezz Mezzrow And His Orchestra - 35th and Calumet
TTITLE8=Mezz Mezzrow And His Swing Band  - A Melody From The Sky
TTITLE9=Mezz Mezzrow And His Swing Band  - Lost
TTITLE10=Mezz Mezzrow And His Swing Band  - Mutiny In The Parlor
TTITLE11=Mezz Mezzrow And His Swing Band  - The Panic Is On
TTITLE12=Mezz Mezzrow And His Swing Band  - I'se A Muggin' Pt. 1
TTITLE13=Mezz Mezzrow And His Swing Band  - I'se A Muggin' Pt. 2
TTITLE14=Mezz Mezzrow And His Orchestra - Blues In Disguise
TTITLE15=Mezz Mezzrow And His Orchestra - That's How I Feel Today
TTITLE16=Mezz Mezzrow And His Orchestra - Hot Club Stomp
TTITLE17=Mezz Mezzrow And His Orchestra - The Swing Session's Called To Order
TTITLE18=Mezz Mezzrow And His Orchestra - Revolutionary Blues
TTITLE19=Mezz Mezzrow And His Orchestra - Comin' On With The Come On and Part 1
TTITLE20=Mezz Mezzrow And His Orchestra - Comin' On With The Come On and Part 2
TTITLE21=Mezz Mezzrow And His Orchestra - Swingin' For Mezz (Careless Love)
EXTD=YEAR: 2006
EXTT0=
EXTT1=
EXTT2=
EXTT3=
EXTT4=
EXTT5=
EXTT6=
EXTT7=
EXTT8=
EXTT9=
EXTT10=
EXTT11=
EXTT12=
EXTT13=
EXTT14=
EXTT15=
EXTT16=
EXTT17=
EXTT18=
EXTT19=
EXTT20=
EXTT21=
PLAYORDER=
